# 3ds Max Wavefront OBJ Exporter v0.97b - (c)2007 guruware
# Datei erstellt: 29.01.2017 17:24:45

#
# object Quader001
#

v  18.4157 -0.0000 18.4157
v  18.4157 -0.0000 9.2079
v  9.2079 -0.0000 9.2079
v  9.2079 -0.0000 18.4157
v  0.0000 0.0000 9.2079
v  0.0000 0.0000 18.4157
v  -9.2079 0.0000 9.2079
v  -9.2079 0.0000 18.4157
v  -18.4157 0.0000 9.2079
v  -18.4157 0.0000 18.4157
v  18.4157 -0.0000 -0.0000
v  9.2079 -0.0000 -0.0000
v  0.0000 0.0000 -0.0000
v  -9.2079 0.0000 -0.0000
v  -18.4157 0.0000 -0.0000
v  18.4157 -0.0000 -9.2079
v  9.2079 -0.0000 -9.2079
v  0.0000 0.0000 -9.2079
v  -9.2079 0.0000 -9.2079
v  -18.4157 0.0000 -9.2079
v  18.4157 -0.0000 -18.4157
v  9.2079 -0.0000 -18.4157
v  0.0000 0.0000 -18.4157
v  -9.2079 0.0000 -18.4157
v  -18.4157 0.0000 -18.4157
v  18.4157 -0.2500 18.4157
v  9.2079 -0.2500 18.4157
v  9.2079 -0.2500 9.2079
v  18.4157 -0.2500 9.2079
v  -0.0000 -0.2500 18.4157
v  -0.0000 -0.2500 9.2079
v  -9.2079 -0.2500 18.4157
v  -9.2079 -0.2500 9.2079
v  -18.4157 -0.2500 18.4157
v  -18.4157 -0.2500 9.2079
v  9.2079 -0.2500 -0.0000
v  18.4157 -0.2500 -0.0000
v  -0.0000 -0.2500 -0.0000
v  -9.2079 -0.2500 -0.0000
v  -18.4157 -0.2500 -0.0000
v  9.2079 -0.2500 -9.2079
v  18.4157 -0.2500 -9.2079
v  -0.0000 -0.2500 -9.2079
v  -9.2079 -0.2500 -9.2079
v  -18.4157 -0.2500 -9.2079
v  9.2079 -0.2500 -18.4157
v  18.4157 -0.2500 -18.4157
v  -0.0000 -0.2500 -18.4157
v  -9.2079 -0.2500 -18.4157
v  -18.4157 -0.2500 -18.4157
# 50 vertices

vn 0.0000 1.0000 -0.0000
vn -0.0000 -1.0000 -0.0000
vn 0.0000 0.0000 1.0000
vn -1.0000 0.0000 -0.0000
vn 0.0000 0.0000 -1.0000
vn 1.0000 -0.0000 -0.0000
# 6 vertex normals

vt 1.0000 0.0000 0.0000
vt 1.0000 0.2500 0.0000
vt 0.7500 0.2500 0.0000
vt 0.7500 0.0000 0.0000
vt 0.5000 0.2500 0.0000
vt 0.5000 0.0000 0.0000
vt 0.2500 0.2500 0.0000
vt 0.2500 0.0000 0.0000
vt 0.0000 0.2500 0.0000
vt 0.0000 0.0000 0.0000
vt 1.0000 0.5000 0.0000
vt 0.7500 0.5000 0.0000
vt 0.5000 0.5000 0.0000
vt 0.2500 0.5000 0.0000
vt 0.0000 0.5000 0.0000
vt 1.0000 0.7500 0.0000
vt 0.7500 0.7500 0.0000
vt 0.5000 0.7500 0.0000
vt 0.2500 0.7500 0.0000
vt 0.0000 0.7500 0.0000
vt 1.0000 1.0000 0.0000
vt 0.7500 1.0000 0.0000
vt 0.5000 1.0000 0.0000
vt 0.2500 1.0000 0.0000
vt 0.0000 1.0000 0.0000
# 25 texture coords

g Quader001
s 2
f 1/1/1 2/2/1 3/3/1 
f 3/3/1 4/4/1 1/1/1 
f 4/4/1 3/3/1 5/5/1 
f 5/5/1 6/6/1 4/4/1 
f 6/6/1 5/5/1 7/7/1 
f 7/7/1 8/8/1 6/6/1 
f 8/8/1 7/7/1 9/9/1 
f 9/9/1 10/10/1 8/8/1 
f 2/2/1 11/11/1 12/12/1 
f 12/12/1 3/3/1 2/2/1 
f 3/3/1 12/12/1 13/13/1 
f 13/13/1 5/5/1 3/3/1 
f 5/5/1 13/13/1 14/14/1 
f 14/14/1 7/7/1 5/5/1 
f 7/7/1 14/14/1 15/15/1 
f 15/15/1 9/9/1 7/7/1 
f 11/11/1 16/16/1 17/17/1 
f 17/17/1 12/12/1 11/11/1 
f 12/12/1 17/17/1 18/18/1 
f 18/18/1 13/13/1 12/12/1 
f 13/13/1 18/18/1 19/19/1 
f 19/19/1 14/14/1 13/13/1 
f 14/14/1 19/19/1 20/20/1 
f 20/20/1 15/15/1 14/14/1 
f 16/16/1 21/21/1 22/22/1 
f 22/22/1 17/17/1 16/16/1 
f 17/17/1 22/22/1 23/23/1 
f 23/23/1 18/18/1 17/17/1 
f 18/18/1 23/23/1 24/24/1 
f 24/24/1 19/19/1 18/18/1 
f 19/19/1 24/24/1 25/25/1 
f 25/25/1 20/20/1 19/19/1 
s 4
f 26/10/2 27/8/2 28/7/2 
f 28/7/2 29/9/2 26/10/2 
f 27/8/2 30/6/2 31/5/2 
f 31/5/2 28/7/2 27/8/2 
f 30/6/2 32/4/2 33/3/2 
f 33/3/2 31/5/2 30/6/2 
f 32/4/2 34/1/2 35/2/2 
f 35/2/2 33/3/2 32/4/2 
f 29/9/2 28/7/2 36/14/2 
f 36/14/2 37/15/2 29/9/2 
f 28/7/2 31/5/2 38/13/2 
f 38/13/2 36/14/2 28/7/2 
f 31/5/2 33/3/2 39/12/2 
f 39/12/2 38/13/2 31/5/2 
f 33/3/2 35/2/2 40/11/2 
f 40/11/2 39/12/2 33/3/2 
f 37/15/2 36/14/2 41/19/2 
f 41/19/2 42/20/2 37/15/2 
f 36/14/2 38/13/2 43/18/2 
f 43/18/2 41/19/2 36/14/2 
f 38/13/2 39/12/2 44/17/2 
f 44/17/2 43/18/2 38/13/2 
f 39/12/2 40/11/2 45/16/2 
f 45/16/2 44/17/2 39/12/2 
f 42/20/2 41/19/2 46/24/2 
f 46/24/2 47/25/2 42/20/2 
f 41/19/2 43/18/2 48/23/2 
f 48/23/2 46/24/2 41/19/2 
f 43/18/2 44/17/2 49/22/2 
f 49/22/2 48/23/2 43/18/2 
f 44/17/2 45/16/2 50/21/2 
f 50/21/2 49/22/2 44/17/2 
s 8
f 1/10/3 4/8/3 27/24/3 
f 27/24/3 26/25/3 1/10/3 
f 4/8/3 6/6/3 30/23/3 
f 30/23/3 27/24/3 4/8/3 
f 6/6/3 8/4/3 32/22/3 
f 32/22/3 30/23/3 6/6/3 
f 8/4/3 10/1/3 34/21/3 
f 34/21/3 32/22/3 8/4/3 
s 16
f 10/10/4 9/8/4 35/24/4 
f 35/24/4 34/25/4 10/10/4 
f 9/8/4 15/6/4 40/23/4 
f 40/23/4 35/24/4 9/8/4 
f 15/6/4 20/4/4 45/22/4 
f 45/22/4 40/23/4 15/6/4 
f 20/4/4 25/1/4 50/21/4 
f 50/21/4 45/22/4 20/4/4 
s 32
f 25/10/5 24/8/5 49/24/5 
f 49/24/5 50/25/5 25/10/5 
f 24/8/5 23/6/5 48/23/5 
f 48/23/5 49/24/5 24/8/5 
f 23/6/5 22/4/5 46/22/5 
f 46/22/5 48/23/5 23/6/5 
f 22/4/5 21/1/5 47/21/5 
f 47/21/5 46/22/5 22/4/5 
s 64
f 21/10/6 16/8/6 42/24/6 
f 42/24/6 47/25/6 21/10/6 
f 16/8/6 11/6/6 37/23/6 
f 37/23/6 42/24/6 16/8/6 
f 11/6/6 2/4/6 29/22/6 
f 29/22/6 37/23/6 11/6/6 
f 2/4/6 1/1/6 26/21/6 
f 26/21/6 29/22/6 2/4/6 
# 96 faces

