# 3ds Max Wavefront OBJ Exporter v0.97b - (c)2007 guruware
# Datei erstellt: 03.01.2017 00:30:11

#
# object Quader003
#

v  4.0000 7.3142 -4.1861
v  4.0000 5.3142 -4.1861
v  2.0000 5.3142 -4.1861
v  2.0000 7.3142 -4.1861
v  0.0000 5.3142 -4.1861
v  0.0000 7.3142 -4.1861
v  -2.0000 5.3142 -4.1861
v  -2.0000 7.3142 -4.1861
v  -4.0000 5.3142 -4.1861
v  -4.0000 7.3142 -4.1861
v  4.0000 3.3142 -4.1861
v  2.0000 3.3142 -4.1861
v  0.0000 3.3142 -4.1861
v  -2.0000 3.3142 -4.1861
v  -4.0000 3.3142 -4.1861
v  4.0000 1.3142 -4.1861
v  2.0000 1.3142 -4.1861
v  -0.0000 1.3142 -4.1861
v  -2.0000 1.3142 -4.1861
v  -4.0000 1.3142 -4.1861
v  4.0000 -0.6858 -4.1861
v  2.0000 -0.6858 -4.1861
v  -0.0000 -0.6858 -4.1861
v  -2.0000 -0.6858 -4.1861
v  -4.0000 -0.6858 -4.1861
v  4.0000 7.3142 -3.9361
v  2.0000 7.3142 -3.9361
v  2.0000 5.3142 -3.9361
v  4.0000 5.3142 -3.9361
v  0.0000 7.3142 -3.9361
v  0.0000 5.3142 -3.9361
v  -2.0000 7.3142 -3.9361
v  -2.0000 5.3142 -3.9361
v  -4.0000 7.3142 -3.9361
v  -4.0000 5.3142 -3.9361
v  2.0000 3.3142 -3.9361
v  4.0000 3.3142 -3.9361
v  0.0000 3.3142 -3.9361
v  -2.0000 3.3142 -3.9361
v  -4.0000 3.3142 -3.9361
v  2.0000 1.3142 -3.9361
v  4.0000 1.3142 -3.9361
v  -0.0000 1.3142 -3.9361
v  -2.0000 1.3142 -3.9361
v  -4.0000 1.3142 -3.9361
v  2.0000 -0.6858 -3.9361
v  4.0000 -0.6858 -3.9361
v  -0.0000 -0.6858 -3.9361
v  -2.0000 -0.6858 -3.9361
v  -4.0000 -0.6858 -3.9361
# 50 vertices

vn -0.0000 -0.0000 -1.0000
vn 0.0000 0.0000 1.0000
vn 0.0000 1.0000 -0.0000
vn -1.0000 0.0000 -0.0000
vn -0.0000 -1.0000 0.0000
vn 1.0000 -0.0000 -0.0000
# 6 vertex normals

vt 1.0000 0.0000 0.0000
vt 1.0000 0.2500 0.0000
vt 0.7500 0.2500 0.0000
vt 0.7500 0.0000 0.0000
vt 0.5000 0.2500 0.0000
vt 0.5000 0.0000 0.0000
vt 0.2500 0.2500 0.0000
vt 0.2500 0.0000 0.0000
vt 0.0000 0.2500 0.0000
vt 0.0000 0.0000 0.0000
vt 1.0000 0.5000 0.0000
vt 0.7500 0.5000 0.0000
vt 0.5000 0.5000 0.0000
vt 0.2500 0.5000 0.0000
vt 0.0000 0.5000 0.0000
vt 1.0000 0.7500 0.0000
vt 0.7500 0.7500 0.0000
vt 0.5000 0.7500 0.0000
vt 0.2500 0.7500 0.0000
vt 0.0000 0.7500 0.0000
vt 1.0000 1.0000 0.0000
vt 0.7500 1.0000 0.0000
vt 0.5000 1.0000 0.0000
vt 0.2500 1.0000 0.0000
vt 0.0000 1.0000 0.0000
# 25 texture coords

g Quader003
s 2
f 1/1/1 2/2/1 3/3/1 
f 3/3/1 4/4/1 1/1/1 
f 4/4/1 3/3/1 5/5/1 
f 5/5/1 6/6/1 4/4/1 
f 6/6/1 5/5/1 7/7/1 
f 7/7/1 8/8/1 6/6/1 
f 8/8/1 7/7/1 9/9/1 
f 9/9/1 10/10/1 8/8/1 
f 2/2/1 11/11/1 12/12/1 
f 12/12/1 3/3/1 2/2/1 
f 3/3/1 12/12/1 13/13/1 
f 13/13/1 5/5/1 3/3/1 
f 5/5/1 13/13/1 14/14/1 
f 14/14/1 7/7/1 5/5/1 
f 7/7/1 14/14/1 15/15/1 
f 15/15/1 9/9/1 7/7/1 
f 11/11/1 16/16/1 17/17/1 
f 17/17/1 12/12/1 11/11/1 
f 12/12/1 17/17/1 18/18/1 
f 18/18/1 13/13/1 12/12/1 
f 13/13/1 18/18/1 19/19/1 
f 19/19/1 14/14/1 13/13/1 
f 14/14/1 19/19/1 20/20/1 
f 20/20/1 15/15/1 14/14/1 
f 16/16/1 21/21/1 22/22/1 
f 22/22/1 17/17/1 16/16/1 
f 17/17/1 22/22/1 23/23/1 
f 23/23/1 18/18/1 17/17/1 
f 18/18/1 23/23/1 24/24/1 
f 24/24/1 19/19/1 18/18/1 
f 19/19/1 24/24/1 25/25/1 
f 25/25/1 20/20/1 19/19/1 
s 4
f 26/10/2 27/8/2 28/7/2 
f 28/7/2 29/9/2 26/10/2 
f 27/8/2 30/6/2 31/5/2 
f 31/5/2 28/7/2 27/8/2 
f 30/6/2 32/4/2 33/3/2 
f 33/3/2 31/5/2 30/6/2 
f 32/4/2 34/1/2 35/2/2 
f 35/2/2 33/3/2 32/4/2 
f 29/9/2 28/7/2 36/14/2 
f 36/14/2 37/15/2 29/9/2 
f 28/7/2 31/5/2 38/13/2 
f 38/13/2 36/14/2 28/7/2 
f 31/5/2 33/3/2 39/12/2 
f 39/12/2 38/13/2 31/5/2 
f 33/3/2 35/2/2 40/11/2 
f 40/11/2 39/12/2 33/3/2 
f 37/15/2 36/14/2 41/19/2 
f 41/19/2 42/20/2 37/15/2 
f 36/14/2 38/13/2 43/18/2 
f 43/18/2 41/19/2 36/14/2 
f 38/13/2 39/12/2 44/17/2 
f 44/17/2 43/18/2 38/13/2 
f 39/12/2 40/11/2 45/16/2 
f 45/16/2 44/17/2 39/12/2 
f 42/20/2 41/19/2 46/24/2 
f 46/24/2 47/25/2 42/20/2 
f 41/19/2 43/18/2 48/23/2 
f 48/23/2 46/24/2 41/19/2 
f 43/18/2 44/17/2 49/22/2 
f 49/22/2 48/23/2 43/18/2 
f 44/17/2 45/16/2 50/21/2 
f 50/21/2 49/22/2 44/17/2 
s 8
f 1/10/3 4/8/3 27/24/3 
f 27/24/3 26/25/3 1/10/3 
f 4/8/3 6/6/3 30/23/3 
f 30/23/3 27/24/3 4/8/3 
f 6/6/3 8/4/3 32/22/3 
f 32/22/3 30/23/3 6/6/3 
f 8/4/3 10/1/3 34/21/3 
f 34/21/3 32/22/3 8/4/3 
s 16
f 10/10/4 9/8/4 35/24/4 
f 35/24/4 34/25/4 10/10/4 
f 9/8/4 15/6/4 40/23/4 
f 40/23/4 35/24/4 9/8/4 
f 15/6/4 20/4/4 45/22/4 
f 45/22/4 40/23/4 15/6/4 
f 20/4/4 25/1/4 50/21/4 
f 50/21/4 45/22/4 20/4/4 
s 32
f 25/10/5 24/8/5 49/24/5 
f 49/24/5 50/25/5 25/10/5 
f 24/8/5 23/6/5 48/23/5 
f 48/23/5 49/24/5 24/8/5 
f 23/6/5 22/4/5 46/22/5 
f 46/22/5 48/23/5 23/6/5 
f 22/4/5 21/1/5 47/21/5 
f 47/21/5 46/22/5 22/4/5 
s 64
f 21/10/6 16/8/6 42/24/6 
f 42/24/6 47/25/6 21/10/6 
f 16/8/6 11/6/6 37/23/6 
f 37/23/6 42/24/6 16/8/6 
f 11/6/6 2/4/6 29/22/6 
f 29/22/6 37/23/6 11/6/6 
f 2/4/6 1/1/6 26/21/6 
f 26/21/6 29/22/6 2/4/6 
# 96 faces

#
# object Quader009
#

v  11.9223 7.3142 -4.1861
v  11.9223 5.3142 -4.1861
v  9.9223 5.3142 -4.1861
v  9.9223 7.3142 -4.1861
v  7.9223 5.3142 -4.1861
v  7.9223 7.3142 -4.1861
v  5.9223 5.3142 -4.1861
v  5.9223 7.3142 -4.1861
v  3.9223 5.3142 -4.1861
v  3.9223 7.3142 -4.1861
v  11.9223 3.3142 -4.1861
v  9.9223 3.3142 -4.1861
v  7.9223 3.3142 -4.1861
v  5.9223 3.3142 -4.1861
v  3.9223 3.3142 -4.1861
v  11.9223 1.3142 -4.1861
v  9.9223 1.3142 -4.1861
v  7.9223 1.3142 -4.1861
v  5.9223 1.3142 -4.1861
v  3.9223 1.3142 -4.1861
v  11.9223 -0.6858 -4.1861
v  9.9223 -0.6858 -4.1861
v  7.9223 -0.6858 -4.1861
v  5.9223 -0.6858 -4.1861
v  3.9223 -0.6858 -4.1861
v  11.9223 7.3142 -3.9361
v  9.9223 7.3142 -3.9361
v  9.9223 5.3142 -3.9361
v  11.9223 5.3142 -3.9361
v  7.9223 7.3142 -3.9361
v  7.9223 5.3142 -3.9361
v  5.9223 7.3142 -3.9361
v  5.9223 5.3142 -3.9361
v  3.9223 7.3142 -3.9361
v  3.9223 5.3142 -3.9361
v  9.9223 3.3142 -3.9361
v  11.9223 3.3142 -3.9361
v  7.9223 3.3142 -3.9361
v  5.9223 3.3142 -3.9361
v  3.9223 3.3142 -3.9361
v  9.9223 1.3142 -3.9361
v  11.9223 1.3142 -3.9361
v  7.9223 1.3142 -3.9361
v  5.9223 1.3142 -3.9361
v  3.9223 1.3142 -3.9361
v  9.9223 -0.6858 -3.9361
v  11.9223 -0.6858 -3.9361
v  7.9223 -0.6858 -3.9361
v  5.9223 -0.6858 -3.9361
v  3.9223 -0.6858 -3.9361
# 50 vertices

vn -0.0000 -0.0000 -1.0000
vn 0.0000 0.0000 1.0000
vn 0.0000 1.0000 -0.0000
vn -1.0000 0.0000 -0.0000
vn -0.0000 -1.0000 0.0000
vn 1.0000 -0.0000 -0.0000
# 6 vertex normals

vt 1.0000 0.0000 0.0000
vt 1.0000 0.2500 0.0000
vt 0.7500 0.2500 0.0000
vt 0.7500 0.0000 0.0000
vt 0.5000 0.2500 0.0000
vt 0.5000 0.0000 0.0000
vt 0.2500 0.2500 0.0000
vt 0.2500 0.0000 0.0000
vt 0.0000 0.2500 0.0000
vt 0.0000 0.0000 0.0000
vt 1.0000 0.5000 0.0000
vt 0.7500 0.5000 0.0000
vt 0.5000 0.5000 0.0000
vt 0.2500 0.5000 0.0000
vt 0.0000 0.5000 0.0000
vt 1.0000 0.7500 0.0000
vt 0.7500 0.7500 0.0000
vt 0.5000 0.7500 0.0000
vt 0.2500 0.7500 0.0000
vt 0.0000 0.7500 0.0000
vt 1.0000 1.0000 0.0000
vt 0.7500 1.0000 0.0000
vt 0.5000 1.0000 0.0000
vt 0.2500 1.0000 0.0000
vt 0.0000 1.0000 0.0000
# 25 texture coords

g Quader009
s 2
f 51/26/7 52/27/7 53/28/7 
f 53/28/7 54/29/7 51/26/7 
f 54/29/7 53/28/7 55/30/7 
f 55/30/7 56/31/7 54/29/7 
f 56/31/7 55/30/7 57/32/7 
f 57/32/7 58/33/7 56/31/7 
f 58/33/7 57/32/7 59/34/7 
f 59/34/7 60/35/7 58/33/7 
f 52/27/7 61/36/7 62/37/7 
f 62/37/7 53/28/7 52/27/7 
f 53/28/7 62/37/7 63/38/7 
f 63/38/7 55/30/7 53/28/7 
f 55/30/7 63/38/7 64/39/7 
f 64/39/7 57/32/7 55/30/7 
f 57/32/7 64/39/7 65/40/7 
f 65/40/7 59/34/7 57/32/7 
f 61/36/7 66/41/7 67/42/7 
f 67/42/7 62/37/7 61/36/7 
f 62/37/7 67/42/7 68/43/7 
f 68/43/7 63/38/7 62/37/7 
f 63/38/7 68/43/7 69/44/7 
f 69/44/7 64/39/7 63/38/7 
f 64/39/7 69/44/7 70/45/7 
f 70/45/7 65/40/7 64/39/7 
f 66/41/7 71/46/7 72/47/7 
f 72/47/7 67/42/7 66/41/7 
f 67/42/7 72/47/7 73/48/7 
f 73/48/7 68/43/7 67/42/7 
f 68/43/7 73/48/7 74/49/7 
f 74/49/7 69/44/7 68/43/7 
f 69/44/7 74/49/7 75/50/7 
f 75/50/7 70/45/7 69/44/7 
s 4
f 76/35/8 77/33/8 78/32/8 
f 78/32/8 79/34/8 76/35/8 
f 77/33/8 80/31/8 81/30/8 
f 81/30/8 78/32/8 77/33/8 
f 80/31/8 82/29/8 83/28/8 
f 83/28/8 81/30/8 80/31/8 
f 82/29/8 84/26/8 85/27/8 
f 85/27/8 83/28/8 82/29/8 
f 79/34/8 78/32/8 86/39/8 
f 86/39/8 87/40/8 79/34/8 
f 78/32/8 81/30/8 88/38/8 
f 88/38/8 86/39/8 78/32/8 
f 81/30/8 83/28/8 89/37/8 
f 89/37/8 88/38/8 81/30/8 
f 83/28/8 85/27/8 90/36/8 
f 90/36/8 89/37/8 83/28/8 
f 87/40/8 86/39/8 91/44/8 
f 91/44/8 92/45/8 87/40/8 
f 86/39/8 88/38/8 93/43/8 
f 93/43/8 91/44/8 86/39/8 
f 88/38/8 89/37/8 94/42/8 
f 94/42/8 93/43/8 88/38/8 
f 89/37/8 90/36/8 95/41/8 
f 95/41/8 94/42/8 89/37/8 
f 92/45/8 91/44/8 96/49/8 
f 96/49/8 97/50/8 92/45/8 
f 91/44/8 93/43/8 98/48/8 
f 98/48/8 96/49/8 91/44/8 
f 93/43/8 94/42/8 99/47/8 
f 99/47/8 98/48/8 93/43/8 
f 94/42/8 95/41/8 100/46/8 
f 100/46/8 99/47/8 94/42/8 
s 8
f 51/35/9 54/33/9 77/49/9 
f 77/49/9 76/50/9 51/35/9 
f 54/33/9 56/31/9 80/48/9 
f 80/48/9 77/49/9 54/33/9 
f 56/31/9 58/29/9 82/47/9 
f 82/47/9 80/48/9 56/31/9 
f 58/29/9 60/26/9 84/46/9 
f 84/46/9 82/47/9 58/29/9 
s 16
f 60/35/10 59/33/10 85/49/10 
f 85/49/10 84/50/10 60/35/10 
f 59/33/10 65/31/10 90/48/10 
f 90/48/10 85/49/10 59/33/10 
f 65/31/10 70/29/10 95/47/10 
f 95/47/10 90/48/10 65/31/10 
f 70/29/10 75/26/10 100/46/10 
f 100/46/10 95/47/10 70/29/10 
s 32
f 75/35/11 74/33/11 99/49/11 
f 99/49/11 100/50/11 75/35/11 
f 74/33/11 73/31/11 98/48/11 
f 98/48/11 99/49/11 74/33/11 
f 73/31/11 72/29/11 96/47/11 
f 96/47/11 98/48/11 73/31/11 
f 72/29/11 71/26/11 97/46/11 
f 97/46/11 96/47/11 72/29/11 
s 64
f 71/35/12 66/33/12 92/49/12 
f 92/49/12 97/50/12 71/35/12 
f 66/33/12 61/31/12 87/48/12 
f 87/48/12 92/49/12 66/33/12 
f 61/31/12 52/29/12 79/47/12 
f 79/47/12 87/48/12 61/31/12 
f 52/29/12 51/26/12 76/46/12 
f 76/46/12 79/47/12 52/29/12 
# 96 faces

