# 3ds Max Wavefront OBJ Exporter v0.97b - (c)2007 guruware
# Datei erstellt: 25.12.2016 17:44:34

#
# object Quader001
#

v  4.0000 -0.0000 4.0000
v  4.0000 -0.0000 2.0000
v  2.0000 -0.0000 2.0000
v  2.0000 -0.0000 4.0000
v  0.0000 0.0000 2.0000
v  0.0000 0.0000 4.0000
v  -2.0000 0.0000 2.0000
v  -2.0000 0.0000 4.0000
v  -4.0000 0.0000 2.0000
v  -4.0000 0.0000 4.0000
v  4.0000 -0.0000 -0.0000
v  2.0000 -0.0000 -0.0000
v  0.0000 0.0000 -0.0000
v  -2.0000 0.0000 -0.0000
v  -4.0000 0.0000 -0.0000
v  4.0000 -0.0000 -2.0000
v  2.0000 -0.0000 -2.0000
v  0.0000 0.0000 -2.0000
v  -2.0000 0.0000 -2.0000
v  -4.0000 0.0000 -2.0000
v  4.0000 -0.0000 -4.0000
v  2.0000 -0.0000 -4.0000
v  0.0000 0.0000 -4.0000
v  -2.0000 0.0000 -4.0000
v  -4.0000 0.0000 -4.0000
v  4.0000 -0.2500 4.0000
v  2.0000 -0.2500 4.0000
v  2.0000 -0.2500 2.0000
v  4.0000 -0.2500 2.0000
v  -0.0000 -0.2500 4.0000
v  -0.0000 -0.2500 2.0000
v  -2.0000 -0.2500 4.0000
v  -2.0000 -0.2500 2.0000
v  -4.0000 -0.2500 4.0000
v  -4.0000 -0.2500 2.0000
v  2.0000 -0.2500 -0.0000
v  4.0000 -0.2500 -0.0000
v  -0.0000 -0.2500 -0.0000
v  -2.0000 -0.2500 -0.0000
v  -4.0000 -0.2500 -0.0000
v  2.0000 -0.2500 -2.0000
v  4.0000 -0.2500 -2.0000
v  -0.0000 -0.2500 -2.0000
v  -2.0000 -0.2500 -2.0000
v  -4.0000 -0.2500 -2.0000
v  2.0000 -0.2500 -4.0000
v  4.0000 -0.2500 -4.0000
v  -0.0000 -0.2500 -4.0000
v  -2.0000 -0.2500 -4.0000
v  -4.0000 -0.2500 -4.0000
# 50 vertices

vn 0.0000 1.0000 -0.0000
vn -0.0000 -1.0000 -0.0000
vn 0.0000 0.0000 1.0000
vn -1.0000 0.0000 -0.0000
vn 0.0000 0.0000 -1.0000
vn 1.0000 -0.0000 -0.0000
# 6 vertex normals

vt 1.0000 0.0000 0.0000
vt 1.0000 0.2500 0.0000
vt 0.7500 0.2500 0.0000
vt 0.7500 0.0000 0.0000
vt 0.5000 0.2500 0.0000
vt 0.5000 0.0000 0.0000
vt 0.2500 0.2500 0.0000
vt 0.2500 0.0000 0.0000
vt 0.0000 0.2500 0.0000
vt 0.0000 0.0000 0.0000
vt 1.0000 0.5000 0.0000
vt 0.7500 0.5000 0.0000
vt 0.5000 0.5000 0.0000
vt 0.2500 0.5000 0.0000
vt 0.0000 0.5000 0.0000
vt 1.0000 0.7500 0.0000
vt 0.7500 0.7500 0.0000
vt 0.5000 0.7500 0.0000
vt 0.2500 0.7500 0.0000
vt 0.0000 0.7500 0.0000
vt 1.0000 1.0000 0.0000
vt 0.7500 1.0000 0.0000
vt 0.5000 1.0000 0.0000
vt 0.2500 1.0000 0.0000
vt 0.0000 1.0000 0.0000
# 25 texture coords

g Quader001
s 2
f 1/1/1 2/2/1 3/3/1 
f 3/3/1 4/4/1 1/1/1 
f 4/4/1 3/3/1 5/5/1 
f 5/5/1 6/6/1 4/4/1 
f 6/6/1 5/5/1 7/7/1 
f 7/7/1 8/8/1 6/6/1 
f 8/8/1 7/7/1 9/9/1 
f 9/9/1 10/10/1 8/8/1 
f 2/2/1 11/11/1 12/12/1 
f 12/12/1 3/3/1 2/2/1 
f 3/3/1 12/12/1 13/13/1 
f 13/13/1 5/5/1 3/3/1 
f 5/5/1 13/13/1 14/14/1 
f 14/14/1 7/7/1 5/5/1 
f 7/7/1 14/14/1 15/15/1 
f 15/15/1 9/9/1 7/7/1 
f 11/11/1 16/16/1 17/17/1 
f 17/17/1 12/12/1 11/11/1 
f 12/12/1 17/17/1 18/18/1 
f 18/18/1 13/13/1 12/12/1 
f 13/13/1 18/18/1 19/19/1 
f 19/19/1 14/14/1 13/13/1 
f 14/14/1 19/19/1 20/20/1 
f 20/20/1 15/15/1 14/14/1 
f 16/16/1 21/21/1 22/22/1 
f 22/22/1 17/17/1 16/16/1 
f 17/17/1 22/22/1 23/23/1 
f 23/23/1 18/18/1 17/17/1 
f 18/18/1 23/23/1 24/24/1 
f 24/24/1 19/19/1 18/18/1 
f 19/19/1 24/24/1 25/25/1 
f 25/25/1 20/20/1 19/19/1 
s 4
f 26/10/2 27/8/2 28/7/2 
f 28/7/2 29/9/2 26/10/2 
f 27/8/2 30/6/2 31/5/2 
f 31/5/2 28/7/2 27/8/2 
f 30/6/2 32/4/2 33/3/2 
f 33/3/2 31/5/2 30/6/2 
f 32/4/2 34/1/2 35/2/2 
f 35/2/2 33/3/2 32/4/2 
f 29/9/2 28/7/2 36/14/2 
f 36/14/2 37/15/2 29/9/2 
f 28/7/2 31/5/2 38/13/2 
f 38/13/2 36/14/2 28/7/2 
f 31/5/2 33/3/2 39/12/2 
f 39/12/2 38/13/2 31/5/2 
f 33/3/2 35/2/2 40/11/2 
f 40/11/2 39/12/2 33/3/2 
f 37/15/2 36/14/2 41/19/2 
f 41/19/2 42/20/2 37/15/2 
f 36/14/2 38/13/2 43/18/2 
f 43/18/2 41/19/2 36/14/2 
f 38/13/2 39/12/2 44/17/2 
f 44/17/2 43/18/2 38/13/2 
f 39/12/2 40/11/2 45/16/2 
f 45/16/2 44/17/2 39/12/2 
f 42/20/2 41/19/2 46/24/2 
f 46/24/2 47/25/2 42/20/2 
f 41/19/2 43/18/2 48/23/2 
f 48/23/2 46/24/2 41/19/2 
f 43/18/2 44/17/2 49/22/2 
f 49/22/2 48/23/2 43/18/2 
f 44/17/2 45/16/2 50/21/2 
f 50/21/2 49/22/2 44/17/2 
s 8
f 1/10/3 4/8/3 27/24/3 
f 27/24/3 26/25/3 1/10/3 
f 4/8/3 6/6/3 30/23/3 
f 30/23/3 27/24/3 4/8/3 
f 6/6/3 8/4/3 32/22/3 
f 32/22/3 30/23/3 6/6/3 
f 8/4/3 10/1/3 34/21/3 
f 34/21/3 32/22/3 8/4/3 
s 16
f 10/10/4 9/8/4 35/24/4 
f 35/24/4 34/25/4 10/10/4 
f 9/8/4 15/6/4 40/23/4 
f 40/23/4 35/24/4 9/8/4 
f 15/6/4 20/4/4 45/22/4 
f 45/22/4 40/23/4 15/6/4 
f 20/4/4 25/1/4 50/21/4 
f 50/21/4 45/22/4 20/4/4 
s 32
f 25/10/5 24/8/5 49/24/5 
f 49/24/5 50/25/5 25/10/5 
f 24/8/5 23/6/5 48/23/5 
f 48/23/5 49/24/5 24/8/5 
f 23/6/5 22/4/5 46/22/5 
f 46/22/5 48/23/5 23/6/5 
f 22/4/5 21/1/5 47/21/5 
f 47/21/5 46/22/5 22/4/5 
s 64
f 21/10/6 16/8/6 42/24/6 
f 42/24/6 47/25/6 21/10/6 
f 16/8/6 11/6/6 37/23/6 
f 37/23/6 42/24/6 16/8/6 
f 11/6/6 2/4/6 29/22/6 
f 29/22/6 37/23/6 11/6/6 
f 2/4/6 1/1/6 26/21/6 
f 26/21/6 29/22/6 2/4/6 
# 96 faces

#
# object Quader003
#

v  4.0000 4.4157 -4.1861
v  4.0000 2.4157 -4.1861
v  2.0000 2.4157 -4.1861
v  2.0000 4.4157 -4.1861
v  0.0000 2.4157 -4.1861
v  0.0000 4.4157 -4.1861
v  -2.0000 2.4157 -4.1861
v  -2.0000 4.4157 -4.1861
v  -4.0000 2.4157 -4.1861
v  -4.0000 4.4157 -4.1861
v  4.0000 0.4157 -4.1861
v  2.0000 0.4157 -4.1861
v  0.0000 0.4157 -4.1861
v  -2.0000 0.4157 -4.1861
v  -4.0000 0.4157 -4.1861
v  4.0000 -1.5843 -4.1861
v  2.0000 -1.5843 -4.1861
v  -0.0000 -1.5843 -4.1861
v  -2.0000 -1.5843 -4.1861
v  -4.0000 -1.5843 -4.1861
v  4.0000 -3.5843 -4.1861
v  2.0000 -3.5843 -4.1861
v  -0.0000 -3.5843 -4.1861
v  -2.0000 -3.5843 -4.1861
v  -4.0000 -3.5843 -4.1861
v  4.0000 4.4157 -3.9361
v  2.0000 4.4157 -3.9361
v  2.0000 2.4157 -3.9361
v  4.0000 2.4157 -3.9361
v  0.0000 4.4157 -3.9361
v  0.0000 2.4157 -3.9361
v  -2.0000 4.4157 -3.9361
v  -2.0000 2.4157 -3.9361
v  -4.0000 4.4157 -3.9361
v  -4.0000 2.4157 -3.9361
v  2.0000 0.4157 -3.9361
v  4.0000 0.4157 -3.9361
v  0.0000 0.4157 -3.9361
v  -2.0000 0.4157 -3.9361
v  -4.0000 0.4157 -3.9361
v  2.0000 -1.5843 -3.9361
v  4.0000 -1.5843 -3.9361
v  -0.0000 -1.5843 -3.9361
v  -2.0000 -1.5843 -3.9361
v  -4.0000 -1.5843 -3.9361
v  2.0000 -3.5843 -3.9361
v  4.0000 -3.5843 -3.9361
v  -0.0000 -3.5843 -3.9361
v  -2.0000 -3.5843 -3.9361
v  -4.0000 -3.5843 -3.9361
# 50 vertices

vn -0.0000 -0.0000 -1.0000
vn 0.0000 0.0000 1.0000
vn 0.0000 1.0000 -0.0000
vn -1.0000 0.0000 -0.0000
vn -0.0000 -1.0000 0.0000
vn 1.0000 -0.0000 -0.0000
# 6 vertex normals

vt 1.0000 0.0000 0.0000
vt 1.0000 0.2500 0.0000
vt 0.7500 0.2500 0.0000
vt 0.7500 0.0000 0.0000
vt 0.5000 0.2500 0.0000
vt 0.5000 0.0000 0.0000
vt 0.2500 0.2500 0.0000
vt 0.2500 0.0000 0.0000
vt 0.0000 0.2500 0.0000
vt 0.0000 0.0000 0.0000
vt 1.0000 0.5000 0.0000
vt 0.7500 0.5000 0.0000
vt 0.5000 0.5000 0.0000
vt 0.2500 0.5000 0.0000
vt 0.0000 0.5000 0.0000
vt 1.0000 0.7500 0.0000
vt 0.7500 0.7500 0.0000
vt 0.5000 0.7500 0.0000
vt 0.2500 0.7500 0.0000
vt 0.0000 0.7500 0.0000
vt 1.0000 1.0000 0.0000
vt 0.7500 1.0000 0.0000
vt 0.5000 1.0000 0.0000
vt 0.2500 1.0000 0.0000
vt 0.0000 1.0000 0.0000
# 25 texture coords

g Quader003
s 2
f 51/26/7 52/27/7 53/28/7 
f 53/28/7 54/29/7 51/26/7 
f 54/29/7 53/28/7 55/30/7 
f 55/30/7 56/31/7 54/29/7 
f 56/31/7 55/30/7 57/32/7 
f 57/32/7 58/33/7 56/31/7 
f 58/33/7 57/32/7 59/34/7 
f 59/34/7 60/35/7 58/33/7 
f 52/27/7 61/36/7 62/37/7 
f 62/37/7 53/28/7 52/27/7 
f 53/28/7 62/37/7 63/38/7 
f 63/38/7 55/30/7 53/28/7 
f 55/30/7 63/38/7 64/39/7 
f 64/39/7 57/32/7 55/30/7 
f 57/32/7 64/39/7 65/40/7 
f 65/40/7 59/34/7 57/32/7 
f 61/36/7 66/41/7 67/42/7 
f 67/42/7 62/37/7 61/36/7 
f 62/37/7 67/42/7 68/43/7 
f 68/43/7 63/38/7 62/37/7 
f 63/38/7 68/43/7 69/44/7 
f 69/44/7 64/39/7 63/38/7 
f 64/39/7 69/44/7 70/45/7 
f 70/45/7 65/40/7 64/39/7 
f 66/41/7 71/46/7 72/47/7 
f 72/47/7 67/42/7 66/41/7 
f 67/42/7 72/47/7 73/48/7 
f 73/48/7 68/43/7 67/42/7 
f 68/43/7 73/48/7 74/49/7 
f 74/49/7 69/44/7 68/43/7 
f 69/44/7 74/49/7 75/50/7 
f 75/50/7 70/45/7 69/44/7 
s 4
f 76/35/8 77/33/8 78/32/8 
f 78/32/8 79/34/8 76/35/8 
f 77/33/8 80/31/8 81/30/8 
f 81/30/8 78/32/8 77/33/8 
f 80/31/8 82/29/8 83/28/8 
f 83/28/8 81/30/8 80/31/8 
f 82/29/8 84/26/8 85/27/8 
f 85/27/8 83/28/8 82/29/8 
f 79/34/8 78/32/8 86/39/8 
f 86/39/8 87/40/8 79/34/8 
f 78/32/8 81/30/8 88/38/8 
f 88/38/8 86/39/8 78/32/8 
f 81/30/8 83/28/8 89/37/8 
f 89/37/8 88/38/8 81/30/8 
f 83/28/8 85/27/8 90/36/8 
f 90/36/8 89/37/8 83/28/8 
f 87/40/8 86/39/8 91/44/8 
f 91/44/8 92/45/8 87/40/8 
f 86/39/8 88/38/8 93/43/8 
f 93/43/8 91/44/8 86/39/8 
f 88/38/8 89/37/8 94/42/8 
f 94/42/8 93/43/8 88/38/8 
f 89/37/8 90/36/8 95/41/8 
f 95/41/8 94/42/8 89/37/8 
f 92/45/8 91/44/8 96/49/8 
f 96/49/8 97/50/8 92/45/8 
f 91/44/8 93/43/8 98/48/8 
f 98/48/8 96/49/8 91/44/8 
f 93/43/8 94/42/8 99/47/8 
f 99/47/8 98/48/8 93/43/8 
f 94/42/8 95/41/8 100/46/8 
f 100/46/8 99/47/8 94/42/8 
s 8
f 51/35/9 54/33/9 77/49/9 
f 77/49/9 76/50/9 51/35/9 
f 54/33/9 56/31/9 80/48/9 
f 80/48/9 77/49/9 54/33/9 
f 56/31/9 58/29/9 82/47/9 
f 82/47/9 80/48/9 56/31/9 
f 58/29/9 60/26/9 84/46/9 
f 84/46/9 82/47/9 58/29/9 
s 16
f 60/35/10 59/33/10 85/49/10 
f 85/49/10 84/50/10 60/35/10 
f 59/33/10 65/31/10 90/48/10 
f 90/48/10 85/49/10 59/33/10 
f 65/31/10 70/29/10 95/47/10 
f 95/47/10 90/48/10 65/31/10 
f 70/29/10 75/26/10 100/46/10 
f 100/46/10 95/47/10 70/29/10 
s 32
f 75/35/11 74/33/11 99/49/11 
f 99/49/11 100/50/11 75/35/11 
f 74/33/11 73/31/11 98/48/11 
f 98/48/11 99/49/11 74/33/11 
f 73/31/11 72/29/11 96/47/11 
f 96/47/11 98/48/11 73/31/11 
f 72/29/11 71/26/11 97/46/11 
f 97/46/11 96/47/11 72/29/11 
s 64
f 71/35/12 66/33/12 92/49/12 
f 92/49/12 97/50/12 71/35/12 
f 66/33/12 61/31/12 87/48/12 
f 87/48/12 92/49/12 66/33/12 
f 61/31/12 52/29/12 79/47/12 
f 79/47/12 87/48/12 61/31/12 
f 52/29/12 51/26/12 76/46/12 
f 76/46/12 79/47/12 52/29/12 
# 96 faces

#
# object Quader004
#

v  -3.9173 4.4436 4.0000
v  -3.9173 4.4436 2.0000
v  -3.9173 2.4436 2.0000
v  -3.9173 2.4436 4.0000
v  -3.9173 0.4436 2.0000
v  -3.9173 0.4436 4.0000
v  -3.9173 -1.5564 2.0000
v  -3.9173 -1.5564 4.0000
v  -3.9173 -3.5564 2.0000
v  -3.9173 -3.5564 4.0000
v  -3.9173 4.4436 -0.0000
v  -3.9173 2.4436 -0.0000
v  -3.9173 0.4436 -0.0000
v  -3.9173 -1.5564 -0.0000
v  -3.9173 -3.5564 -0.0000
v  -3.9173 4.4436 -2.0000
v  -3.9173 2.4436 -2.0000
v  -3.9173 0.4436 -2.0000
v  -3.9173 -1.5564 -2.0000
v  -3.9173 -3.5564 -2.0000
v  -3.9173 4.4436 -4.0000
v  -3.9173 2.4436 -4.0000
v  -3.9173 0.4436 -4.0000
v  -3.9173 -1.5564 -4.0000
v  -3.9173 -3.5564 -4.0000
v  -3.6673 4.4436 4.0000
v  -3.6673 2.4436 4.0000
v  -3.6673 2.4436 2.0000
v  -3.6673 4.4436 2.0000
v  -3.6673 0.4436 4.0000
v  -3.6673 0.4436 2.0000
v  -3.6673 -1.5564 4.0000
v  -3.6673 -1.5564 2.0000
v  -3.6673 -3.5564 4.0000
v  -3.6673 -3.5564 2.0000
v  -3.6673 2.4436 -0.0000
v  -3.6673 4.4436 -0.0000
v  -3.6673 0.4436 -0.0000
v  -3.6673 -1.5564 -0.0000
v  -3.6673 -3.5564 -0.0000
v  -3.6673 2.4436 -2.0000
v  -3.6673 4.4436 -2.0000
v  -3.6673 0.4436 -2.0000
v  -3.6673 -1.5564 -2.0000
v  -3.6673 -3.5564 -2.0000
v  -3.6673 2.4436 -4.0000
v  -3.6673 4.4436 -4.0000
v  -3.6673 0.4436 -4.0000
v  -3.6673 -1.5564 -4.0000
v  -3.6673 -3.5564 -4.0000
# 50 vertices

vn -1.0000 0.0000 -0.0000
vn 1.0000 -0.0000 -0.0000
vn 0.0000 0.0000 1.0000
vn -0.0000 -1.0000 -0.0000
vn 0.0000 0.0000 -1.0000
vn 0.0000 1.0000 -0.0000
# 6 vertex normals

vt 1.0000 0.0000 0.0000
vt 1.0000 0.2500 0.0000
vt 0.7500 0.2500 0.0000
vt 0.7500 0.0000 0.0000
vt 0.5000 0.2500 0.0000
vt 0.5000 0.0000 0.0000
vt 0.2500 0.2500 0.0000
vt 0.2500 0.0000 0.0000
vt 0.0000 0.2500 0.0000
vt 0.0000 0.0000 0.0000
vt 1.0000 0.5000 0.0000
vt 0.7500 0.5000 0.0000
vt 0.5000 0.5000 0.0000
vt 0.2500 0.5000 0.0000
vt 0.0000 0.5000 0.0000
vt 1.0000 0.7500 0.0000
vt 0.7500 0.7500 0.0000
vt 0.5000 0.7500 0.0000
vt 0.2500 0.7500 0.0000
vt 0.0000 0.7500 0.0000
vt 1.0000 1.0000 0.0000
vt 0.7500 1.0000 0.0000
vt 0.5000 1.0000 0.0000
vt 0.2500 1.0000 0.0000
vt 0.0000 1.0000 0.0000
# 25 texture coords

g Quader004
s 2
f 101/51/13 102/52/13 103/53/13 
f 103/53/13 104/54/13 101/51/13 
f 104/54/13 103/53/13 105/55/13 
f 105/55/13 106/56/13 104/54/13 
f 106/56/13 105/55/13 107/57/13 
f 107/57/13 108/58/13 106/56/13 
f 108/58/13 107/57/13 109/59/13 
f 109/59/13 110/60/13 108/58/13 
f 102/52/13 111/61/13 112/62/13 
f 112/62/13 103/53/13 102/52/13 
f 103/53/13 112/62/13 113/63/13 
f 113/63/13 105/55/13 103/53/13 
f 105/55/13 113/63/13 114/64/13 
f 114/64/13 107/57/13 105/55/13 
f 107/57/13 114/64/13 115/65/13 
f 115/65/13 109/59/13 107/57/13 
f 111/61/13 116/66/13 117/67/13 
f 117/67/13 112/62/13 111/61/13 
f 112/62/13 117/67/13 118/68/13 
f 118/68/13 113/63/13 112/62/13 
f 113/63/13 118/68/13 119/69/13 
f 119/69/13 114/64/13 113/63/13 
f 114/64/13 119/69/13 120/70/13 
f 120/70/13 115/65/13 114/64/13 
f 116/66/13 121/71/13 122/72/13 
f 122/72/13 117/67/13 116/66/13 
f 117/67/13 122/72/13 123/73/13 
f 123/73/13 118/68/13 117/67/13 
f 118/68/13 123/73/13 124/74/13 
f 124/74/13 119/69/13 118/68/13 
f 119/69/13 124/74/13 125/75/13 
f 125/75/13 120/70/13 119/69/13 
s 4
f 126/60/14 127/58/14 128/57/14 
f 128/57/14 129/59/14 126/60/14 
f 127/58/14 130/56/14 131/55/14 
f 131/55/14 128/57/14 127/58/14 
f 130/56/14 132/54/14 133/53/14 
f 133/53/14 131/55/14 130/56/14 
f 132/54/14 134/51/14 135/52/14 
f 135/52/14 133/53/14 132/54/14 
f 129/59/14 128/57/14 136/64/14 
f 136/64/14 137/65/14 129/59/14 
f 128/57/14 131/55/14 138/63/14 
f 138/63/14 136/64/14 128/57/14 
f 131/55/14 133/53/14 139/62/14 
f 139/62/14 138/63/14 131/55/14 
f 133/53/14 135/52/14 140/61/14 
f 140/61/14 139/62/14 133/53/14 
f 137/65/14 136/64/14 141/69/14 
f 141/69/14 142/70/14 137/65/14 
f 136/64/14 138/63/14 143/68/14 
f 143/68/14 141/69/14 136/64/14 
f 138/63/14 139/62/14 144/67/14 
f 144/67/14 143/68/14 138/63/14 
f 139/62/14 140/61/14 145/66/14 
f 145/66/14 144/67/14 139/62/14 
f 142/70/14 141/69/14 146/74/14 
f 146/74/14 147/75/14 142/70/14 
f 141/69/14 143/68/14 148/73/14 
f 148/73/14 146/74/14 141/69/14 
f 143/68/14 144/67/14 149/72/14 
f 149/72/14 148/73/14 143/68/14 
f 144/67/14 145/66/14 150/71/14 
f 150/71/14 149/72/14 144/67/14 
s 8
f 101/60/15 104/58/15 127/74/15 
f 127/74/15 126/75/15 101/60/15 
f 104/58/15 106/56/15 130/73/15 
f 130/73/15 127/74/15 104/58/15 
f 106/56/15 108/54/15 132/72/15 
f 132/72/15 130/73/15 106/56/15 
f 108/54/15 110/51/15 134/71/15 
f 134/71/15 132/72/15 108/54/15 
s 16
f 110/60/16 109/58/16 135/74/16 
f 135/74/16 134/75/16 110/60/16 
f 109/58/16 115/56/16 140/73/16 
f 140/73/16 135/74/16 109/58/16 
f 115/56/16 120/54/16 145/72/16 
f 145/72/16 140/73/16 115/56/16 
f 120/54/16 125/51/16 150/71/16 
f 150/71/16 145/72/16 120/54/16 
s 32
f 125/60/17 124/58/17 149/74/17 
f 149/74/17 150/75/17 125/60/17 
f 124/58/17 123/56/17 148/73/17 
f 148/73/17 149/74/17 124/58/17 
f 123/56/17 122/54/17 146/72/17 
f 146/72/17 148/73/17 123/56/17 
f 122/54/17 121/51/17 147/71/17 
f 147/71/17 146/72/17 122/54/17 
s 64
f 121/60/18 116/58/18 142/74/18 
f 142/74/18 147/75/18 121/60/18 
f 116/58/18 111/56/18 137/73/18 
f 137/73/18 142/74/18 116/58/18 
f 111/56/18 102/54/18 129/72/18 
f 129/72/18 137/73/18 111/56/18 
f 102/54/18 101/51/18 126/71/18 
f 126/71/18 129/72/18 102/54/18 
# 96 faces

